<svg width="32" height="32" viewBox="0 0 32 32" fill="none" xmlns="http://www.w3.org/2000/svg">
<path d="M23.2376 23.846C21.3862 23.8859 19.5483 23.5218 17.724 22.7538C15.8996 21.9858 14.2309 20.8768 12.7179 19.427C11.2048 17.9772 10.0254 16.3577 9.17959 14.5687C8.33377 12.7797 7.89063 10.9592 7.85017 9.10716C7.84443 8.84055 7.92851 8.61647 8.10242 8.43491C8.27633 8.25334 8.49659 8.15969 8.7632 8.15395L12.3624 8.07646C12.5697 8.072 12.7564 8.13852 12.9223 8.27601C13.0883 8.41351 13.1882 8.57792 13.2219 8.76923L13.8665 11.8672C13.9012 12.1035 13.8981 12.3036 13.8572 12.4675C13.8163 12.6314 13.7379 12.7739 13.6219 12.8949L11.5137 15.1186C11.8218 15.6602 12.1848 16.182 12.6028 16.684C13.0208 17.1859 13.4796 17.6689 13.9792 18.1329C14.4482 18.5821 14.9388 18.9978 15.4508 19.3797C15.9629 19.7617 16.5038 20.1092 17.0736 20.4224L19.1171 18.289C19.2475 18.1528 19.4195 18.0492 19.6332 17.9783C19.8468 17.9073 20.0573 17.8841 20.2647 17.9086L23.3441 18.4647C23.5527 18.5195 23.7253 18.6234 23.862 18.7763C23.9987 18.9293 24.0691 19.1017 24.0732 19.2937L24.1507 22.8928C24.1564 23.1594 24.0723 23.3835 23.8984 23.5651C23.7245 23.7466 23.5043 23.8403 23.2376 23.846ZM10.6331 13.4483L12.0679 11.9504L11.6452 9.87009L9.66793 9.91266C9.75506 10.5183 9.87165 11.116 10.0177 11.7056C10.1638 12.2951 10.3689 12.876 10.6331 13.4483ZM18.7581 21.2307C19.3412 21.4701 19.9344 21.6574 20.5377 21.7926C21.1411 21.9278 21.7465 22.011 22.3542 22.0424L22.3121 20.0873L20.2146 19.7101L18.7581 21.2307Z" fill="#1B75D1"/>
</svg>
