<svg width="24" height="24" viewBox="0 0 24 24" fill="none" xmlns="http://www.w3.org/2000/svg">
<path d="M22 16.92V19.92C22.0011 20.1985 21.9441 20.4742 21.8325 20.7292C21.7209 20.9842 21.5573 21.2126 21.3522 21.3979C21.1472 21.5832 20.9053 21.7212 20.6441 21.8022C20.3829 21.8832 20.1085 21.9053 19.84 21.867C16.7428 21.4956 13.787 20.3691 11.19 18.567C8.77382 16.9947 6.72533 14.9462 5.153 12.53C3.35096 9.93197 2.22449 6.97506 1.853 3.877C1.81471 3.60878 1.83679 3.33476 1.91772 3.07388C1.99865 2.813 2.13639 2.57138 2.32157 2.36656C2.50675 2.16174 2.735 1.99826 2.98991 1.88681C3.24482 1.77536 3.52049 1.7184 3.799 1.72H6.799C7.23619 1.71797 7.63714 1.96639 7.839 2.367C8.29779 3.48892 8.87811 4.55347 9.568 5.537C9.73413 5.78813 9.81991 6.08376 9.81407 6.3845C9.80823 6.68524 9.71106 6.97736 9.535 7.222L8.035 9.222C9.51366 12.1337 11.8663 14.4863 14.778 15.965L16.778 14.465C17.0226 14.289 17.3147 14.1918 17.6155 14.186C17.9162 14.1801 18.2119 14.2659 18.463 14.432C19.4465 15.1219 20.5111 15.7022 21.633 16.16C22.0375 16.3614 22.2871 16.7642 22.283 17.203L22.28 17.22L22 16.92Z" stroke="#1B75D1" stroke-width="2" stroke-linecap="round" stroke-linejoin="round"/>
</svg>

